{"accessors":[{"bufferView":0,"byteOffset":0,"componentType":5126,"count":1950,"max":[0.4,0.4,0.9],"min":[-0.4,-0.4,-0.9],"normalized":false,"type":"VEC3"},{"bufferView":1,"byteOffset":0,"componentType":5126,"count":1950,"max":[0.999969,1,0.042445,1],"min":[-0.999969,-0.999872,-0.031891,1],"normalized":false,"type":"VEC4"},{"bufferView":2,"byteOffset":0,"componentType":5126,"count":1950,"max":[1,1,1],"min":[-1,-1,-1],"normalized":false,"type":"VEC3"},{"bufferView":3,"byteOffset":0,"componentType":5126,"count":1950,"max":[1,1],"min":[0,0],"normalized":false,"type":"VEC2"},{"bufferView":4,"byteOffset":0,"componentType":5125,"count":10368,"max":[1949],"min":[0],"normalized":false,"type":"SCALAR"}],"asset":{"generator":"Godot Engine v3.4.4.stable.official@419e713a29f20bd3351a54d1e6c4c5af7ef4b253","version":"2.0"},"bufferViews":[{"buffer":0,"byteLength":23400,"byteOffset":0},{"buffer":0,"byteLength":31200,"byteOffset":23400},{"buffer":0,"byteLength":23400,"byteOffset":54600},{"buffer":0,"byteLength":15600,"byteOffset":78000},{"buffer":0,"byteLength":41472,"byteOffset":93600}],"buffers":[{"byteLength":135072,"uri":"PlayerModelReference0.bin"}],"cameras":[{"perspective":{"yfov":1.22173,"zfar":100,"znear":0.05},"type":"perspective"}],"extensionsRequired":["KHR_texture_transform"],"extensionsUsed":["KHR_lights_punctual","KHR_texture_transform"],"meshes":[{"extras":{"targetNames":[]},"primitives":[{"attributes":{"NORMAL":2,"POSITION":0,"TANGENT":1,"TEXCOORD_0":3},"indices":4,"mode":4}]}],"nodes":[{"children":[1,3],"extensions":{},"name":"Player"},{"children":[2],"extensions":{},"name":"Collider","rotation":[0.707107,0,0,0.707107],"translation":[0,0.9,0]},{"extensions":{},"mesh":0,"name":"Player Model"},{"children":[4],"extensions":{},"name":"look pivot","translation":[0,1.25328,-0]},{"camera":0,"extensions":{},"name":"Camera","rotation":[0,1,0,-0],"translation":[0,0.5,0]}],"scene":0,"scenes":[{"nodes":[0]}]}